# Blender 4.0.2
# www.blender.org
o Plane.004
v 1.000000 -1.000000 0.000000
v -0.999255 -1.000623 -0.024346
v 1.000000 0.986531 -0.000000
v -0.998543 0.985217 -0.124046
v 1.000000 0.720600 0.000000
v -0.998899 0.719632 -0.074196
v 0.000372 -1.000311 -0.012173
v 0.000728 1.464029 -0.062023
v 0.000550 0.720116 -0.037098
v -0.441874 -1.038540 -0.018259
v -0.640876 1.389620 -0.093034
v -0.499174 0.719874 -0.055647
v 0.642333 1.390277 -0.031011
v 0.500275 0.720358 -0.018549
v 0.442619 -1.038229 -0.006086
v -0.836107 1.241295 -0.108540
v -0.749037 0.719753 -0.064921
v 0.837564 1.242281 -0.015506
v 0.750138 0.720479 -0.009274
v 0.250279 -1.000234 -0.009130
v 0.358780 1.464193 -0.046517
v 0.250413 0.720237 -0.027823
v -0.357324 1.463865 -0.077529
v -0.249312 0.719995 -0.046372
v -0.249534 -1.000389 -0.015216
v 1.000000 0.605139 0.000000
v -0.999077 0.108684 -0.049271
v 0.000461 0.149489 -0.024635
v -0.499308 0.149290 -0.036953
v 0.500231 0.149688 -0.012318
v -0.749192 0.149191 -0.043112
v 0.750115 0.149787 -0.006159
v 0.250346 0.149588 -0.018477
v -0.249423 0.149390 -0.030794
v -1.483840 0.633320 -0.091463
v -1.484018 0.193739 -0.066538
v -1.281777 0.719318 -0.082829
v -1.281955 0.108370 -0.057904
v -1.120134 0.719475 -0.078513
v -1.120312 0.108527 -0.053588
v -1.416659 0.128473 -0.062221
v -1.416481 0.698900 -0.087146
v 0.949869 -1.452101 -0.007123
v -0.968464 -1.452724 -0.031469
v -0.529763 -1.452568 -0.025382
v 0.550787 -1.452257 -0.013210
v -0.999138 -1.169564 -0.027907
v -0.499324 -1.169408 -0.021821
v 0.500304 -1.169097 -0.009648
v 1.000118 -1.168941 -0.003561
v 1.000176 -1.367631 -0.005342
v 0.500362 -1.367786 -0.011429
v -0.499265 -1.368098 -0.023602
v -0.999079 -1.368253 -0.029688
v 1.000000 -0.617802 0.000000
v 1.233198 0.562067 0.000000
v 1.233198 -0.574730 0.000000
v 1.000000 -0.117359 0.000000
v 1.333140 -0.117359 0.000000
v 1.000000 -0.507995 0.000000
v 1.333140 -0.507995 0.000000
v 1.000000 0.495332 0.000000
v 1.333140 0.495332 0.000000
vn 0.1237 -0.1036 -0.9869
vn 0.0341 -0.0395 -0.9986
vn 0.0309 -0.0191 -0.9993
vn 0.0407 -0.0322 -0.9987
vn 0.0309 -0.0300 -0.9991
vn 0.0518 -0.0392 -0.9979
vn 0.0474 -0.0248 -0.9986
vn 0.0309 -0.0082 -0.9995
vn 0.0309 -0.0355 -0.9989
vn 0.0733 -0.0536 -0.9959
vn 0.0350 -0.0045 -0.9994
vn 0.0516 -0.0136 -0.9986
vn 0.0423 -0.0295 -0.9987
vn 0.0309 -0.0136 -0.9994
vn 0.0407 -0.0347 -0.9986
vn 0.0309 -0.0246 -0.9992
vn 0.0184 -0.0122 -0.9998
vn 0.0202 -0.0072 -0.9998
vn 0.0220 -0.0141 -0.9997
vn 0.0184 -0.0095 -0.9998
vn 0.0640 -0.0492 -0.9967
vn 0.0267 -0.0408 -0.9988
vn 0.0356 -0.0407 -0.9985
vn 0.0321 -0.0421 -0.9986
vn 0.0175 -0.0184 -0.9997
vn 0.0181 -0.0028 -0.9998
vn 0.0135 0.0211 -0.9997
vn 0.0130 0.0211 -0.9997
vn 0.0123 0.0214 -0.9997
vn 0.0106 0.0258 -0.9996
vn 0.0122 0.0090 -0.9999
vn -0.0000 -0.0000 -1.0000
vt 0.875000 0.500000
vt 1.000000 0.500000
vt 1.000000 1.000000
vt 0.875000 1.000000
vt 0.875000 0.250000
vt 1.000000 0.250000
vt 0.375000 0.250000
vt 0.500000 0.250000
vt 0.500000 0.500000
vt 0.375000 0.500000
vt 0.500000 1.000000
vt 0.375000 1.000000
vt 0.625000 0.250000
vt 0.750000 0.250000
vt 0.750000 0.500000
vt 0.625000 0.500000
vt 0.750000 1.000000
vt 0.625000 1.000000
vt 0.125000 0.500000
vt 0.250000 0.500000
vt 0.250000 1.000000
vt 0.125000 1.000000
vt 0.125000 0.250000
vt 0.250000 0.250000
vt 0.000000 0.250000
vt 0.000000 0.500000
vt 0.000000 1.000000
vt 0.500000 0.000000
vt 0.625000 0.000000
vt 0.250000 0.000000
vt 0.375000 0.000000
vt 0.750000 0.000000
vt 1.000000 0.000000
vt 0.000000 0.218750
vt 0.000000 0.187500
vt 0.000000 0.156250
vt 0.000000 0.125000
vt 0.000000 0.000000
s 0
f 17/1/1 6/2/1 4/3/1 16/4/1
f 31/5/2 27/6/2 6/2/2 17/1/2
f 33/7/3 28/8/3 9/9/3 22/10/3
f 22/10/4 9/9/4 8/11/4 21/12/4
f 34/13/5 29/14/5 12/15/5 24/16/5
f 24/16/6 12/15/6 11/17/6 23/18/6
f 19/19/7 14/20/7 13/21/7 18/22/7
f 32/23/8 30/24/8 14/20/8 19/19/8
f 29/14/9 31/5/9 17/1/9 12/15/9
f 12/15/10 17/1/10 16/4/10 11/17/10
f 26/25/11 32/23/11 19/19/11 5/26/11
f 5/26/12 19/19/12 18/22/12 3/27/12
f 14/20/13 22/10/13 21/12/13 13/21/13
f 30/24/14 33/7/14 22/10/14 14/20/14
f 9/9/15 24/16/15 23/18/15 8/11/15
f 28/8/16 34/13/16 24/16/16 9/9/16
f 7/28/17 25/29/17 34/13/17 28/8/17
f 15/30/18 20/31/18 33/7/18 30/24/18
f 25/29/19 10/32/19 29/14/19 34/13/19
f 20/31/20 7/28/20 28/8/20 33/7/20
f 42/2/21 41/6/21 36/6/21 35/2/21
f 39/2/22 40/6/22 38/6/22 37/2/22
f 6/2/23 27/6/23 40/6/23 39/2/23
f 37/2/24 38/6/24 41/6/24 42/2/24
f 10/32/25 2/33/25 27/6/25 31/5/25 29/14/25
f 15/30/26 30/24/26 32/23/26 26/25/26 62/34/26 58/35/26 60/36/26 55/37/26 1/38/26
f 52/30/27 51/38/27 43/38/27 46/30/27
f 54/33/28 53/32/28 45/32/28 44/33/28
f 2/33/29 10/32/29 48/32/29 47/33/29
f 15/30/30 1/38/30 50/38/30 49/30/30
f 49/30/31 50/38/31 51/38/31 52/30/31
f 47/33/31 48/32/31 53/32/31 54/33/31
f 62/34/32 26/25/32 56/25/32 63/34/32
f 60/36/32 58/35/32 59/35/32 61/36/32
f 55/37/32 60/36/32 61/36/32 57/37/32
f 58/35/32 62/34/32 63/34/32 59/35/32
